<svg width="32" height="32" viewBox="0 0 32 32" fill="none" xmlns="http://www.w3.org/2000/svg">
<path d="M1.77778 32C1.27407 32 0.851852 31.8453 0.511111 31.5359C0.17037 31.2266 0 30.8432 0 30.3859V21.5485C0 20.8827 0.261111 20.3127 0.783333 19.8386C1.30556 19.3644 1.93333 19.1274 2.66667 19.1274H3.86667V11.7831C3.86667 11.1173 4.12778 10.5473 4.65 10.0731C5.17222 9.59899 5.8 9.36192 6.53333 9.36192H14.6667V6.77932C14.0741 6.40269 13.6222 5.99198 13.3111 5.54718C13 5.10238 12.8444 4.56599 12.8444 3.93802C12.8444 3.54554 12.9259 3.16772 13.0889 2.80454C13.2519 2.44136 13.4815 2.12526 13.7778 1.85624L15.5111 0.201765C15.5407 0.174863 15.7079 0.107608 16.0127 0C16.0635 0 16.2222 0.0672552 16.4889 0.201765L18.2222 1.85624C18.5185 2.12526 18.7556 2.44136 18.9333 2.80454C19.1111 3.16772 19.2 3.54554 19.2 3.93802C19.2 4.56599 19.037 5.10238 18.7111 5.54718C18.3852 5.99198 17.9259 6.40269 17.3333 6.77932V9.36192H25.4667C26.2 9.36192 26.8278 9.59899 27.35 10.0731C27.8722 10.5473 28.1333 11.1173 28.1333 11.7831V19.1274H29.3333C30.0667 19.1274 30.6944 19.3644 31.2167 19.8386C31.7389 20.3127 32 20.8827 32 21.5485V30.3859C32 30.8432 31.8296 31.2266 31.4889 31.5359C31.1481 31.8453 30.7259 32 30.2222 32H1.77778ZM6.53333 19.1274H25.4667V11.7831H6.53333V19.1274ZM2.66667 29.5788H29.3333V21.5485H2.66667V29.5788Z" fill="#FB7371"/>
</svg>
